# This file uses centimeters as units for non-parametric coordinates.

mtllib E.mtl
g default
v -1.690834 -0.000000 0.744774
v -0.565147 -0.000000 0.744774
v -1.690834 4.299136 0.744774
v -0.565147 4.299136 0.744774
v -1.690834 4.299136 -0.786022
v -0.565147 4.299136 -0.786022
v -1.690834 -0.000000 -0.786022
v -0.565147 -0.000000 -0.786022
v -0.565147 0.876863 -0.786022
v -1.690834 0.876863 -0.786022
v -1.690834 0.876863 0.744774
v -0.565147 0.876863 0.744774
v -0.565147 1.896296 -0.786022
v -1.690834 1.896296 -0.786022
v -1.690834 1.896296 0.744774
v -0.565147 1.896296 0.744774
v -0.565147 2.674112 -0.786022
v -1.690834 2.674112 -0.786022
v -1.690834 2.674112 0.744774
v -0.565147 2.674112 0.744774
v -0.565147 3.452956 -0.786022
v -1.690834 3.452956 -0.786022
v -1.690834 3.452956 0.744774
v -0.565147 3.452956 0.744774
v 1.603939 3.452956 0.744774
v 1.603939 3.452956 -0.786022
v 1.603939 4.299136 -0.786022
v 1.603939 4.299136 0.744774
v 1.603939 -0.000000 -0.786022
v 1.603939 -0.000000 0.744774
v 1.603939 0.876863 -0.786022
v 1.603939 0.876863 0.744774
v 0.747835 1.896296 0.744774
v 0.747835 1.896296 -0.786022
v 0.747835 2.674112 -0.786022
v 0.747835 2.674112 0.744774
vt 0.364955 0.376104
vt 0.486918 0.376104
vt 0.486918 0.467784
vt 0.364955 0.467784
vt 0.364955 0.291720
vt 0.486918 0.291720
vt 0.721929 0.376104
vt 0.721929 0.467784
vt 0.364955 0.207447
vt 0.486918 0.207447
vt 0.364955 0.096996
vt 0.486918 0.096996
vt 0.629174 0.207447
vt 0.629174 0.291720
vt 0.364955 0.001992
vt 0.486918 0.001992
vt 0.721929 0.001992
vt 0.721929 0.096996
vt 0.587217 0.828455
vt 0.587217 0.706492
vt 0.753071 0.706492
vt 0.753071 0.828455
vt 0.587217 0.471482
vt 0.753071 0.471482
vt 0.001846 0.001992
vt 0.123809 0.001992
vt 0.123809 0.093672
vt 0.001846 0.093672
vt 0.358819 0.001992
vt 0.358819 0.093672
vt 0.123809 0.178056
vt 0.001846 0.178056
vt 0.123809 0.262329
vt 0.001846 0.262329
vt 0.266064 0.178056
vt 0.266064 0.262329
vt 0.123809 0.372780
vt 0.001846 0.372780
vt 0.123809 0.467784
vt 0.001846 0.467784
vt 0.358819 0.372780
vt 0.358819 0.467784
vt 0.758756 0.828456
vt 0.758756 0.706492
vt 0.924610 0.706492
vt 0.924610 0.828456
vt 0.758756 0.471482
vt 0.924610 0.471482
vt 0.146775 0.637336
vt 0.146775 0.471482
vt 0.238455 0.471482
vt 0.238455 0.637336
vt 0.727885 0.376104
vt 0.893739 0.376104
vt 0.893739 0.467784
vt 0.727885 0.467784
vt 0.727885 0.291720
vt 0.893739 0.291720
vt 0.727885 0.207447
vt 0.893739 0.207447
vt 0.727885 0.096996
vt 0.893739 0.096996
vt 0.727885 0.001992
vt 0.893739 0.001992
vt 0.046087 0.637336
vt 0.046087 0.471482
vt 0.141091 0.471482
vt 0.141091 0.637336
vt 0.001846 0.806889
vt 0.001846 0.641034
vt 0.112297 0.641034
vt 0.112297 0.806889
vt 0.119391 0.806889
vt 0.119391 0.641034
vt 0.203664 0.641034
vt 0.203664 0.806889
vt 0.209672 0.876045
vt 0.209672 0.710190
vt 0.294056 0.710190
vt 0.294056 0.876045
vt 0.581533 0.706492
vt 0.415678 0.706492
vt 0.415678 0.471482
vt 0.581533 0.471482
vt 0.409994 0.706492
vt 0.244139 0.706492
vt 0.244139 0.471482
vt 0.409994 0.471482
vt 0.299953 0.876045
vt 0.299953 0.710190
vt 0.442209 0.710190
vt 0.442209 0.876045
vt 0.448014 0.998008
vt 0.448014 0.832153
vt 0.590269 0.832153
vt 0.590269 0.998008
vn 0.000000 0.000000 1.000000
vn 0.000000 0.000000 1.000000
vn 0.000000 0.000000 1.000000
vn 0.000000 0.000000 1.000000
vn 0.000000 1.000000 0.000000
vn 0.000000 1.000000 0.000000
vn 0.000000 1.000000 0.000000
vn 0.000000 1.000000 0.000000
vn 0.000000 0.000000 -1.000000
vn 0.000000 0.000000 -1.000000
vn 0.000000 0.000000 -1.000000
vn 0.000000 0.000000 -1.000000
vn 0.000000 -1.000000 0.000000
vn 0.000000 -1.000000 0.000000
vn 0.000000 -1.000000 0.000000
vn 0.000000 -1.000000 0.000000
vn 1.000000 0.000000 0.000000
vn 1.000000 0.000000 0.000000
vn 1.000000 0.000000 0.000000
vn 1.000000 0.000000 0.000000
vn -1.000000 0.000000 0.000000
vn -1.000000 0.000000 0.000000
vn -1.000000 0.000000 0.000000
vn -1.000000 0.000000 0.000000
vn 0.000000 0.000000 -1.000000
vn 0.000000 0.000000 -1.000000
vn 0.000000 0.000000 -1.000000
vn 0.000000 0.000000 -1.000000
vn -1.000000 0.000000 0.000000
vn -1.000000 0.000000 0.000000
vn -1.000000 0.000000 0.000000
vn -1.000000 0.000000 0.000000
vn 0.000000 0.000000 1.000000
vn 0.000000 0.000000 1.000000
vn 0.000000 0.000000 1.000000
vn 0.000000 0.000000 1.000000
vn 1.000000 0.000000 0.000000
vn 1.000000 0.000000 0.000000
vn 1.000000 0.000000 0.000000
vn 1.000000 0.000000 0.000000
vn 0.000000 0.000000 -1.000000
vn 0.000000 0.000000 -1.000000
vn -1.000000 0.000000 0.000000
vn -1.000000 0.000000 0.000000
vn 0.000000 0.000000 1.000000
vn 0.000000 0.000000 1.000000
vn 1.000000 0.000000 0.000000
vn 1.000000 0.000000 0.000000
vn 1.000000 0.000000 0.000000
vn 1.000000 0.000000 0.000000
vn 0.000000 0.000000 -1.000000
vn 0.000000 0.000000 -1.000000
vn -1.000000 0.000000 0.000000
vn -1.000000 0.000000 0.000000
vn 0.000000 0.000000 1.000000
vn 0.000000 0.000000 1.000000
vn 1.000000 0.000000 0.000000
vn 1.000000 0.000000 0.000000
vn 1.000000 0.000000 0.000000
vn 1.000000 0.000000 0.000000
vn 1.000000 0.000000 0.000000
vn 1.000000 0.000000 0.000000
vn 1.000000 0.000000 0.000000
vn 1.000000 0.000000 0.000000
vn 0.000000 -1.000000 0.000000
vn 0.000000 -1.000000 0.000000
vn 0.000000 -1.000000 0.000000
vn 0.000000 -1.000000 0.000000
vn 0.000000 0.000000 -1.000000
vn 0.000000 0.000000 -1.000000
vn 0.000000 0.000000 -1.000000
vn 0.000000 0.000000 -1.000000
vn 0.000000 1.000000 0.000000
vn 0.000000 1.000000 0.000000
vn 0.000000 1.000000 0.000000
vn 0.000000 1.000000 0.000000
vn 0.000000 0.000000 1.000000
vn 0.000000 0.000000 1.000000
vn 0.000000 0.000000 1.000000
vn 0.000000 0.000000 1.000000
vn 0.000000 -1.000000 0.000000
vn 0.000000 -1.000000 0.000000
vn 0.000000 -1.000000 0.000000
vn 0.000000 -1.000000 0.000000
vn 0.000000 0.000000 -1.000000
vn 0.000000 0.000000 -1.000000
vn 0.000000 0.000000 -1.000000
vn 0.000000 0.000000 -1.000000
vn 0.000000 1.000000 0.000000
vn 0.000000 1.000000 0.000000
vn 0.000000 1.000000 0.000000
vn 0.000000 1.000000 0.000000
vn 0.000000 0.000000 1.000000
vn 0.000000 0.000000 1.000000
vn 0.000000 0.000000 1.000000
vn 0.000000 0.000000 1.000000
vn 0.000000 -1.000000 0.000000
vn 0.000000 -1.000000 0.000000
vn 0.000000 -1.000000 0.000000
vn 0.000000 -1.000000 0.000000
vn 0.000000 0.000000 -1.000000
vn 0.000000 0.000000 -1.000000
vn 0.000000 0.000000 -1.000000
vn 0.000000 0.000000 -1.000000
vn 0.000000 1.000000 0.000000
vn 0.000000 1.000000 0.000000
vn 0.000000 1.000000 0.000000
vn 0.000000 1.000000 0.000000
vn 0.000000 0.000000 1.000000
vn 0.000000 0.000000 1.000000
vn 0.000000 0.000000 1.000000
vn 0.000000 0.000000 1.000000
s 1
g pCube4
usemtl initialShadingGroup
f 23/1/1 24/2/2 3/4/3
f 3/4/3 24/2/2 4/3/4
s 2
f 3/19/5 4/20/6 5/22/7
f 5/22/7 4/20/6 6/21/8
s 3
f 5/25/9 6/26/10 22/28/11
f 22/28/11 6/26/10 21/27/12
s 4
f 7/43/13 8/44/14 1/46/15
f 1/46/15 8/44/14 2/45/16
s 5
f 25/49/17 26/50/18 28/52/19
f 28/52/19 26/50/18 27/51/20
s 6
f 22/53/21 23/54/22 5/56/23
f 5/56/23 23/54/22 3/55/24
s 3
f 10/38/25 9/37/26 7/40/27
f 7/40/27 9/37/26 8/39/28
s 6
f 7/63/29 1/64/30 10/61/31
f 10/61/31 1/64/30 11/62/32
s 1
f 1/15/33 2/16/34 11/11/35
f 11/11/35 2/16/34 12/12/36
s 10
f 30/65/37 29/66/38 32/68/39
f 32/68/39 29/66/38 31/67/40
s 3
f 14/34/41 13/33/42 10/38/25
f 10/38/25 13/33/42 9/37/26
s 6
f 10/61/31 11/62/32 14/59/43
f 14/59/43 11/62/32 15/60/44
s 1
f 11/11/35 12/12/36 15/9/45
f 15/9/45 12/12/36 16/10/46
s 12
f 12/69/47 9/70/48 16/72/49
f 16/72/49 9/70/48 13/71/50
s 3
f 18/32/51 17/31/52 14/34/41
f 14/34/41 17/31/52 13/33/42
s 6
f 14/59/43 15/60/44 18/57/53
f 18/57/53 15/60/44 19/58/54
s 1
f 15/9/45 16/10/46 19/5/55
f 19/5/55 16/10/46 20/6/56
s 14
f 33/73/57 34/74/58 36/76/59
f 36/76/59 34/74/58 35/75/60
s 3
f 22/28/11 21/27/12 18/32/51
f 18/32/51 21/27/12 17/31/52
s 6
f 18/57/53 19/58/54 22/53/21
f 22/53/21 19/58/54 23/54/22
s 1
f 19/5/55 20/6/56 23/1/1
f 23/1/1 20/6/56 24/2/2
s 15
f 20/77/61 17/78/62 24/80/63
f 24/80/63 17/78/62 21/79/64
s 16
f 24/81/65 21/82/66 25/84/67
f 25/84/67 21/82/66 26/83/68
s 17
f 21/27/69 6/26/70 26/30/71
f 26/30/71 6/26/70 27/29/72
s 18
f 6/21/73 4/20/74 27/24/75
f 27/24/75 4/20/74 28/23/76
s 19
f 4/3/77 24/2/78 28/8/79
f 28/8/79 24/2/78 25/7/80
s 20
f 2/45/81 8/44/82 30/48/83
f 30/48/83 8/44/82 29/47/84
s 21
f 8/39/85 9/37/86 29/42/87
f 29/42/87 9/37/86 31/41/88
s 22
f 9/85/89 12/86/90 31/88/91
f 31/88/91 12/86/90 32/87/92
s 23
f 12/12/93 2/16/94 32/18/95
f 32/18/95 2/16/94 30/17/96
s 24
f 16/89/97 13/90/98 33/92/99
f 33/92/99 13/90/98 34/91/100
s 25
f 13/33/101 17/31/102 34/36/103
f 34/36/103 17/31/102 35/35/104
s 26
f 17/93/105 20/94/106 35/96/107
f 35/96/107 20/94/106 36/95/108
s 27
f 20/6/109 16/10/110 36/14/111
f 36/14/111 16/10/110 33/13/112
