# This file uses centimeters as units for non-parametric coordinates.

mtllib I.mtl
g default
v -0.685844 0.978646 0.664476
v 0.685844 0.978646 0.664476
v -0.685844 3.414668 0.664476
v 0.685844 3.414668 0.664476
v -0.685844 3.414668 -0.664476
v 0.685844 3.414668 -0.664476
v -0.685844 0.978646 -0.664476
v 0.685844 0.978646 -0.664476
v -0.685844 4.365156 0.664476
v 0.685844 4.365156 0.664476
v 0.685844 4.365156 -0.664476
v -0.685844 4.365156 -0.664476
v -0.685844 0.028157 -0.664476
v 0.685844 0.028157 -0.664476
v 0.685844 0.028157 0.664476
v -0.685844 0.028157 0.664476
v 1.550886 3.414668 0.664476
v 1.550886 3.414668 -0.664476
v 1.550886 4.365156 -0.664476
v 1.550886 4.365156 0.664476
v -1.550886 3.414668 0.664476
v -1.550886 3.414668 -0.664476
v -1.550886 4.365156 0.664476
v -1.550886 4.365156 -0.664476
v 1.550886 0.978646 -0.664476
v 1.550886 0.978646 0.664476
v 1.550886 0.028157 0.664476
v 1.550886 0.028157 -0.664476
v -1.550886 0.978646 -0.664476
v -1.550886 0.978646 0.664476
v -1.550886 0.028157 -0.664476
v -1.550886 0.028157 0.664476
vt 0.336109 0.076989
vt 0.449142 0.076989
vt 0.449142 0.269201
vt 0.336109 0.269201
vt 0.336109 0.001992
vt 0.449142 0.001992
vt 0.449142 0.344198
vt 0.336109 0.344198
vt 0.264826 0.076989
vt 0.264826 0.001992
vt 0.520426 0.001992
vt 0.520426 0.076989
vt 0.520426 0.269201
vt 0.520426 0.344198
vt 0.264826 0.344198
vt 0.264826 0.269201
vt 0.598859 0.001992
vt 0.711892 0.001992
vt 0.711892 0.325108
vt 0.598859 0.325108
vt 0.783175 0.001992
vt 0.783175 0.325108
vt 0.527575 0.325108
vt 0.527575 0.001992
vt 0.073175 0.076989
vt 0.186208 0.076989
vt 0.186208 0.269201
vt 0.073175 0.269201
vt 0.073175 0.001992
vt 0.186208 0.001992
vt 0.186208 0.344198
vt 0.073175 0.344198
vt 0.001891 0.076989
vt 0.001891 0.001992
vt 0.257491 0.001992
vt 0.257491 0.076989
vt 0.257491 0.269201
vt 0.257491 0.344198
vt 0.001891 0.344198
vt 0.001891 0.269201
vt 0.763199 0.328897
vt 0.876232 0.328897
vt 0.876232 0.652013
vt 0.763199 0.652013
vt 0.947515 0.328897
vt 0.947515 0.652013
vt 0.691916 0.652013
vt 0.691916 0.328897
vt 0.493879 0.671103
vt 0.493879 0.347987
vt 0.686091 0.347987
vt 0.686091 0.671103
vt 0.295843 0.671103
vt 0.295843 0.347987
vt 0.488054 0.347987
vt 0.488054 0.671103
vt 0.215021 0.671103
vt 0.215021 0.347987
vt 0.290018 0.347987
vt 0.290018 0.671103
vt 0.312935 0.998008
vt 0.312935 0.674892
vt 0.387932 0.674892
vt 0.387932 0.998008
vt 0.209196 0.347987
vt 0.209196 0.671103
vt 0.134199 0.671103
vt 0.134199 0.347987
vt 0.128374 0.347987
vt 0.128374 0.671103
vt 0.053377 0.671103
vt 0.053377 0.347987
vt 0.001891 0.998008
vt 0.001891 0.674892
vt 0.073175 0.674892
vt 0.073175 0.998008
vt 0.151074 0.674892
vt 0.151074 0.998008
vt 0.079791 0.998008
vt 0.079791 0.674892
vt 0.157506 0.998008
vt 0.157506 0.674892
vt 0.228789 0.674892
vt 0.228789 0.998008
vt 0.306504 0.674892
vt 0.306504 0.998008
vt 0.235220 0.998008
vt 0.235220 0.674892
vn 0.000000 0.000000 1.000000
vn 0.000000 0.000000 1.000000
vn 0.000000 0.000000 1.000000
vn 0.000000 0.000000 1.000000
vn 0.000000 1.000000 0.000000
vn 0.000000 1.000000 0.000000
vn 0.000000 1.000000 0.000000
vn 0.000000 1.000000 0.000000
vn 0.000000 0.000000 -1.000000
vn 0.000000 0.000000 -1.000000
vn 0.000000 0.000000 -1.000000
vn 0.000000 0.000000 -1.000000
vn 0.000000 -1.000000 0.000000
vn 0.000000 -1.000000 0.000000
vn 0.000000 -1.000000 0.000000
vn 0.000000 -1.000000 0.000000
vn 1.000000 0.000000 0.000000
vn 1.000000 0.000000 0.000000
vn 1.000000 0.000000 0.000000
vn 1.000000 0.000000 0.000000
vn -1.000000 0.000000 0.000000
vn -1.000000 0.000000 0.000000
vn -1.000000 0.000000 0.000000
vn -1.000000 0.000000 0.000000
vn 0.000000 0.000000 1.000000
vn 0.000000 0.000000 1.000000
vn 0.000000 0.000000 1.000000
vn 0.000000 0.000000 1.000000
vn 1.000000 0.000000 0.000000
vn 1.000000 0.000000 0.000000
vn 1.000000 0.000000 0.000000
vn 1.000000 0.000000 0.000000
vn 0.000000 0.000000 -1.000000
vn 0.000000 0.000000 -1.000000
vn 0.000000 0.000000 -1.000000
vn 0.000000 0.000000 -1.000000
vn -1.000000 0.000000 0.000000
vn -1.000000 0.000000 0.000000
vn -1.000000 0.000000 0.000000
vn -1.000000 0.000000 0.000000
vn 0.000000 0.000000 -1.000000
vn 0.000000 0.000000 -1.000000
vn 0.000000 0.000000 -1.000000
vn 0.000000 0.000000 -1.000000
vn 1.000000 0.000000 0.000000
vn 1.000000 0.000000 0.000000
vn 1.000000 0.000000 0.000000
vn 1.000000 0.000000 0.000000
vn 0.000000 0.000000 1.000000
vn 0.000000 0.000000 1.000000
vn 0.000000 0.000000 1.000000
vn 0.000000 0.000000 1.000000
vn -1.000000 0.000000 0.000000
vn -1.000000 0.000000 0.000000
vn -1.000000 0.000000 0.000000
vn -1.000000 0.000000 0.000000
vn 0.000000 -1.000000 0.000000
vn 0.000000 -1.000000 0.000000
vn 0.000000 -1.000000 0.000000
vn 0.000000 -1.000000 0.000000
vn 0.000000 0.000000 -1.000000
vn 0.000000 0.000000 -1.000000
vn 0.000000 0.000000 -1.000000
vn 0.000000 0.000000 -1.000000
vn 0.000000 1.000000 0.000000
vn 0.000000 1.000000 0.000000
vn 0.000000 1.000000 0.000000
vn 0.000000 1.000000 0.000000
vn 0.000000 0.000000 1.000000
vn 0.000000 0.000000 1.000000
vn 0.000000 0.000000 1.000000
vn 0.000000 0.000000 1.000000
vn 0.000000 -1.000000 0.000000
vn 0.000000 -1.000000 0.000000
vn 0.000000 -1.000000 0.000000
vn 0.000000 -1.000000 0.000000
vn 0.000000 0.000000 1.000000
vn 0.000000 0.000000 1.000000
vn 0.000000 0.000000 1.000000
vn 0.000000 0.000000 1.000000
vn 0.000000 1.000000 0.000000
vn 0.000000 1.000000 0.000000
vn 0.000000 1.000000 0.000000
vn 0.000000 1.000000 0.000000
vn 0.000000 0.000000 -1.000000
vn 0.000000 0.000000 -1.000000
vn 0.000000 0.000000 -1.000000
vn 0.000000 0.000000 -1.000000
vn 0.000000 1.000000 0.000000
vn 0.000000 1.000000 0.000000
vn 0.000000 1.000000 0.000000
vn 0.000000 1.000000 0.000000
vn 0.000000 0.000000 1.000000
vn 0.000000 0.000000 1.000000
vn 0.000000 0.000000 1.000000
vn 0.000000 0.000000 1.000000
vn 0.000000 -1.000000 0.000000
vn 0.000000 -1.000000 0.000000
vn 0.000000 -1.000000 0.000000
vn 0.000000 -1.000000 0.000000
vn 0.000000 0.000000 -1.000000
vn 0.000000 0.000000 -1.000000
vn 0.000000 0.000000 -1.000000
vn 0.000000 0.000000 -1.000000
vn 0.000000 1.000000 0.000000
vn 0.000000 1.000000 0.000000
vn 0.000000 1.000000 0.000000
vn 0.000000 1.000000 0.000000
vn 0.000000 0.000000 -1.000000
vn 0.000000 0.000000 -1.000000
vn 0.000000 0.000000 -1.000000
vn 0.000000 0.000000 -1.000000
vn 0.000000 -1.000000 0.000000
vn 0.000000 -1.000000 0.000000
vn 0.000000 -1.000000 0.000000
vn 0.000000 -1.000000 0.000000
vn 0.000000 0.000000 1.000000
vn 0.000000 0.000000 1.000000
vn 0.000000 0.000000 1.000000
vn 0.000000 0.000000 1.000000
s 1
g pCube4
usemtl initialShadingGroup
f 1/1/1 2/2/2 3/4/3
f 3/4/3 2/2/2 4/3/4
s 2
f 9/17/5 10/18/6 12/20/7
f 12/20/7 10/18/6 11/19/8
s 3
f 5/25/9 6/26/10 7/28/11
f 7/28/11 6/26/10 8/27/12
s 4
f 13/41/13 14/42/14 16/44/15
f 16/44/15 14/42/14 15/43/16
s 5
f 2/49/17 8/50/18 4/52/19
f 4/52/19 8/50/18 6/51/20
s 6
f 7/53/21 1/54/22 5/56/23
f 5/56/23 1/54/22 3/55/24
s 7
f 3/4/25 4/3/26 9/8/27
f 9/8/27 4/3/26 10/7/28
s 8
f 17/57/29 18/58/30 20/60/31
f 20/60/31 18/58/30 19/59/32
s 9
f 6/26/33 5/25/34 11/30/35
f 11/30/35 5/25/34 12/29/36
s 10
f 22/61/37 21/62/38 24/64/39
f 24/64/39 21/62/38 23/63/40
s 11
f 7/28/41 8/27/42 13/32/43
f 13/32/43 8/27/42 14/31/44
s 12
f 25/65/45 26/66/46 28/68/47
f 28/68/47 26/66/46 27/67/48
s 13
f 2/2/49 1/1/50 15/6/51
f 15/6/51 1/1/50 16/5/52
s 14
f 30/69/53 29/70/54 32/72/55
f 32/72/55 29/70/54 31/71/56
s 15
f 4/73/57 6/74/58 17/76/59
f 17/76/59 6/74/58 18/75/60
s 16
f 6/26/61 11/30/62 18/36/63
f 18/36/63 11/30/62 19/35/64
s 17
f 11/19/65 10/18/66 19/22/67
f 19/22/67 10/18/66 20/21/68
s 18
f 10/7/69 4/3/70 20/14/71
f 20/14/71 4/3/70 17/13/72
s 19
f 5/77/73 3/78/74 22/80/75
f 22/80/75 3/78/74 21/79/76
s 20
f 3/4/77 9/8/78 21/16/79
f 21/16/79 9/8/78 23/15/80
s 21
f 9/17/81 12/20/82 23/24/83
f 23/24/83 12/20/82 24/23/84
s 22
f 12/29/85 5/25/86 24/34/87
f 24/34/87 5/25/86 22/33/88
s 23
f 8/81/89 2/82/90 25/84/91
f 25/84/91 2/82/90 26/83/92
s 24
f 2/2/93 15/6/94 26/12/95
f 26/12/95 15/6/94 27/11/96
s 25
f 15/43/97 14/42/98 27/46/99
f 27/46/99 14/42/98 28/45/100
s 26
f 14/31/101 8/27/102 28/38/103
f 28/38/103 8/27/102 25/37/104
s 27
f 1/85/105 7/86/106 30/88/107
f 30/88/107 7/86/106 29/87/108
s 28
f 7/28/109 13/32/110 29/40/111
f 29/40/111 13/32/110 31/39/112
s 29
f 13/41/113 16/44/114 31/48/115
f 31/48/115 16/44/114 32/47/116
s 30
f 16/5/117 1/1/118 32/10/119
f 32/10/119 1/1/118 30/9/120
